<?xml version="1.0" encoding="iso-8859-1"?>
<!-- Generator: Adobe Illustrator 19.0.0, SVG Export Plug-In . SVG Version: 6.00 Build 0)  -->
<svg version="1.1" id="Capa_1" xmlns="http://www.w3.org/2000/svg" xmlns:xlink="http://www.w3.org/1999/xlink" x="0px" y="0px"
	 viewBox="0 0 512 512" style="enable-background:new 0 0 512 512;" xml:space="preserve">
<g>
	<g>
		<path d="M380,240.01c-5.53,0-9.99,4.452-9.99,9.99c0,5.143,3.869,9.43,8.99,9.938c5.929,0.589,10.99-4.031,10.99-9.938
			C389.99,244.47,385.538,240.01,380,240.01z"/>
	</g>
</g>
<g>
	<g>
		<path d="M214,240.01c-5.53,0-9.99,4.452-9.99,9.99c0,4.798,3.365,8.854,7.99,9.788c6.184,1.249,11.99-3.419,11.99-9.788
			C223.99,244.47,219.538,240.01,214,240.01z"/>
	</g>
</g>
<g>
	<g>
		<path d="M50,240.01c-5.53,0-9.99,4.452-9.99,9.99c0,5.535,4.454,9.988,9.99,9.988c5.535,0,9.99-4.452,9.99-9.988
			C59.99,244.47,55.538,240.01,50,240.01z"/>
	</g>
</g>
<g>
	<g>
		<path d="M491.942,201.701c-0.656-50.956-7.331-99.018-18.973-136.118C459.505,22.679,441.188,0,420,0
			s-39.505,22.679-52.969,65.583c-11.642,37.1-18.318,85.162-18.973,136.118c-3.748,1.321-7.157,3.362-10.058,5.963
			c-2.901-2.6-6.31-4.642-10.058-5.963c-0.656-50.956-7.331-99.018-18.973-136.118C295.505,22.679,277.188,0,256,0
			s-39.505,22.679-52.969,65.583c-11.642,37.1-18.318,85.162-18.973,136.118c-3.748,1.321-7.157,3.362-10.058,5.963
			c-2.901-2.6-6.31-4.642-10.058-5.963c-0.656-50.956-7.331-99.018-18.973-136.118C131.505,22.679,113.188,0,92,0
			S52.495,22.679,39.031,65.583c-11.642,37.1-18.318,85.162-18.973,136.118C8.389,205.812,0,216.942,0,230v252
			c0,16.542,13.458,30,30,30h124c7.678,0,14.688-2.902,20-7.664c5.312,4.761,12.322,7.664,20,7.664h124
			c7.678,0,14.688-2.902,20-7.664c5.312,4.761,12.322,7.664,20,7.664h124c16.542,0,30-13.458,30-30V230
			C512,216.942,503.611,205.812,491.942,201.701z M58.113,71.571C70.059,33.507,83.833,20,92,20s21.941,13.507,33.886,51.571
			C136.816,106.4,143.15,151.684,143.919,200H40.08C40.849,151.684,47.184,106.401,58.113,71.571z M164,482c0,5.514-4.486,10-10,10
			H30c-5.514,0-10-4.486-10-10v-36h144V482z M164,426H20v-20h144V426z M164,386H20V230c0-5.514,4.486-10,10-10h124
			c5.514,0,10,4.486,10,10V386z M222.113,71.571C234.059,33.507,247.833,20,256,20s21.941,13.507,33.886,51.571
			C300.816,106.4,307.15,151.684,307.919,200H204.08C204.849,151.684,211.184,106.401,222.113,71.571z M328,482
			c0,5.514-4.486,10-10,10H194c-5.514,0-10-4.486-10-10v-36h144V482z M328,426H184v-20h144V426z M328,386H184V230
			c0-5.514,4.486-10,10-10h124c5.514,0,10,4.486,10,10V386z M386.113,71.571C398.059,33.507,411.833,20,420,20
			s21.941,13.507,33.886,51.571C464.816,106.4,471.15,151.684,471.919,200H368.08C368.849,151.684,375.184,106.401,386.113,71.571z
			 M492,482c0,5.514-4.486,10-10,10H358c-5.514,0-10-4.486-10-10v-36h144V482z M492,426H348v-20h144V426z M492,386H348V230
			c0-5.514,4.486-10,10-10h124c5.514,0,10,4.486,10,10V386z"/>
	</g>
</g>
<g>
	<g>
		<path d="M50,280c-5.523,0-10,4.478-10,10v66c0,5.522,4.477,10,10,10s10-4.478,10-10v-66C60,284.478,55.523,280,50,280z"/>
	</g>
</g>
<g>
	<g>
		<path d="M214,280c-5.523,0-10,4.478-10,10v66c0,5.522,4.477,10,10,10s10-4.478,10-10v-66C224,284.478,219.523,280,214,280z"/>
	</g>
</g>
<g>
	<g>
		<path d="M380,280c-5.523,0-10,4.478-10,10v66c0,5.522,4.477,10,10,10s10-4.478,10-10v-66C390,284.478,385.523,280,380,280z"/>
	</g>
</g>
<g>
</g>
<g>
</g>
<g>
</g>
<g>
</g>
<g>
</g>
<g>
</g>
<g>
</g>
<g>
</g>
<g>
</g>
<g>
</g>
<g>
</g>
<g>
</g>
<g>
</g>
<g>
</g>
<g>
</g>
</svg>
