<svg height="511pt" viewBox="-99 0 511 511.998" width="511pt" xmlns="http://www.w3.org/2000/svg"><path d="m212.078125 142.972656v-12.453125c0-4.140625-3.359375-7.5-7.5-7.5-4.144531 0-7.5 3.359375-7.5 7.5v12.453125c0 4.140625 3.355469 7.5 7.5 7.5 4.140625 0 7.5-3.359375 7.5-7.5zm0 0"/><path d="m117.261719 142.972656v-12.453125c0-4.140625-3.355469-7.5-7.5-7.5-4.140625 0-7.5 3.359375-7.5 7.5v12.453125c0 4.140625 3.359375 7.5 7.5 7.5 4.144531 0 7.5-3.359375 7.5-7.5zm0 0"/><path d="m157.171875 153.242188c7.136719 0 13.738281-3.5625 17.65625-9.527344 2.277344-3.460938 1.3125-8.113282-2.148437-10.386719-1.269532-.835937-6.882813-2.992187-10.386719 2.152344-1.679688 2.464843-4.128907 2.761719-5.121094 2.761719-.996094 0-3.484375-.269532-5.125-2.761719-2.273437-3.464844-6.925781-4.425781-10.386719-2.152344-3.460937 2.273437-4.425781 6.925781-2.148437 10.386719 3.917969 5.964844 10.519531 9.527344 17.660156 9.527344zm0 0"/><path d="m284.851562 449.378906c-1.066406-35.445312-11.804687-63.59375-22.449218-83.042968 9.585937-5.371094 16.085937-15.625 16.085937-27.375 0-17.292969-14.070312-31.359376-31.359375-31.359376h-11.5625c-7.019531-21.863281-9.972656-43.53125-11.15625-60.027343 15.019532-2.320313 26.554688-15.332031 26.554688-30.988281 0-14.421876-9.785156-26.59375-23.066406-30.238282 3.308593-10.664062 8.90625-23.585937 18.328124-34.894531 5.625-6.746094 8.230469-15.273437 7.335938-24.011719-.886719-8.640625-5.101562-16.363281-11.871094-21.746094-12.503906-9.9375-32.53125-21.394531-61.367187-25.566406v-7.125h5.601562c12.765625 0 23.152344-10.390625 23.152344-23.15625 0-12.769531-10.386719-23.15625-23.152344-23.15625h-5.601562s1.972656-26.691406-23.152344-26.691406c-25.128906 0-23.15625 26.691406-23.15625 26.691406h-5.597656c-12.769531 0-23.15625 10.386719-23.15625 23.15625 0 12.765625 10.386719 23.15625 23.15625 23.15625h5.597656v7.117188c-11.320313 1.632812-22.042969 4.480468-32.046875 8.546875-3.835938 1.558593-5.683594 5.933593-4.125 9.773437 1.5625 3.835938 5.9375 5.679688 9.773438 4.121094 14.800781-6.015625 31.472656-9.066406 49.554687-9.066406 37.246094 0 61.445313 13.019531 75.183594 23.941406 3.582031 2.847656 5.8125 6.945312 6.285156 11.535156.476563 4.683594-.917969 9.257813-3.9375 12.878906-11.945313 14.332032-18.527344 30.683594-22.117187 43.371094h-110.832032c-3.589844-12.6875-10.171875-29.039062-22.117187-43.371094-3.019531-3.621093-4.414063-8.195312-3.9375-12.878906.472656-4.589844 2.703125-8.6875 6.285156-11.535156 3.242187-2.578125 3.78125-7.292969 1.203125-10.535156-2.578125-3.242188-7.296875-3.785156-10.539062-1.207032-6.765626 5.382813-10.984376 13.105469-11.871094 21.746094-.894532 8.738282 1.710937 17.265625 7.332031 24.011719 9.425781 11.308594 15.023437 24.226563 18.328125 34.894531-13.277344 3.644532-23.0625 15.816406-23.0625 30.238282 0 15.652343 11.53125 28.667968 26.550781 30.988281-1.191406 16.660156-4.160156 38.238281-11.15625 60.027343h-11.558593c-17.289063 0-31.359376 14.066407-31.359376 31.359376 0 11.75 6.5 22.007812 16.089844 27.378906-10.742187 19.613281-21.390625 47.714844-22.449218 83.035156-16.191407 1.21875-28.992188 14.769531-28.992188 31.261719 0 17.292969 14.066406 31.359375 31.359375 31.359375h250.621094c17.292969 0 31.359375-14.066406 31.359375-31.359375 0-16.492188-12.800782-30.039063-28.988282-31.257813zm-135.835937-370.683594v-13.191406c0-4.144531-3.359375-7.5-7.5-7.5h-13.097656c-4.496094 0-8.15625-3.660156-8.15625-8.15625s3.660156-8.15625 8.15625-8.15625h13.097656c4.140625 0 7.5-3.355468 7.5-7.5v-11.039062c0-4.496094 3.65625-8.152344 8.15625-8.152344 4.496094 0 8.152344 3.65625 8.152344 8.152344v11.039062c0 4.144532 3.359375 7.5 7.5 7.5h13.101562c4.496094 0 8.152344 3.660156 8.152344 8.15625s-3.65625 8.15625-8.152344 8.15625h-13.101562c-4.140625 0-7.5 3.355469-7.5 7.5v13.191406c-2.65625-.128906-13.617188-.128906-16.308594 0zm-70.640625 137.890626c0-9.023438 7.339844-16.363282 16.363281-16.363282h124.867188c9.019531 0 16.359375 7.339844 16.359375 16.363282 0 9.019531-7.339844 16.359374-16.359375 16.359374h-124.871094c-9.019531 0-16.359375-7.339843-16.359375-16.359374zm26.566406 31.359374h104.457032c1.136718 16.351563 3.9375 37.707032 10.472656 59.65625h-125.402344c6.511719-21.859374 9.324219-43.140624 10.472656-59.65625zm-37.726562 122.375h116.902344c4.140624 0 7.5-3.355468 7.5-7.5 0-4.140624-3.359376-7.5-7.5-7.5h-116.902344c-9.023438 0-16.363282-7.335937-16.363282-16.359374 0-9.019532 7.339844-16.359376 16.363282-16.359376h179.914062c9.019532 0 16.359375 7.339844 16.359375 16.359376 0 9.023437-7.339843 16.359374-16.359375 16.359374h-30.65625c-4.144531 0-7.5 3.359376-7.5 7.5 0 4.144532 3.355469 7.5 7.5 7.5h30.65625c.097656 0 .199219-.003906.300782-.007812 10.273437 17.808594 21.277343 44.621094 22.417968 78.964844h-225.347656c1.132812-34.199219 12.027344-60.96875 22.410156-78.964844.101563.003906.199219.007812.304688.007812zm215.265625 126.679688h-250.621094c-9.019531 0-16.359375-7.339844-16.359375-16.359375 0-9.023437 7.339844-16.363281 16.359375-16.363281h250.621094c9.019531 0 16.359375 7.339844 16.359375 16.363281 0 9.019531-7.339844 16.359375-16.359375 16.359375zm0 0"/></svg>